<svg xmlns="http://www.w3.org/2000/svg" xmlns:xlink="http://www.w3.org/1999/xlink" viewBox="0 0 247.93 276.37"><defs><style>.cls-1{fill:url(#linear-gradient);}.cls-2{fill:url(#linear-gradient-2);}</style><linearGradient id="linear-gradient" x1="404.64" y1="138.18" x2="106.41" y2="138.18" gradientUnits="userSpaceOnUse"><stop offset="0.42" stop-color="#ed6ea0"/><stop offset="0.62" stop-color="#ef714b"/><stop offset="0.63" stop-color="#ef6e4c"/><stop offset="0.75" stop-color="#f53062"/><stop offset="0.8" stop-color="#f7186a"/></linearGradient><linearGradient id="linear-gradient-2" x1="-158.79" y1="144.25" x2="150.84" y2="139.05" gradientUnits="userSpaceOnUse"><stop offset="0.39" stop-color="#ed6ea0"/><stop offset="0.47" stop-color="#ef714b"/><stop offset="0.86" stop-color="#f7186a"/></linearGradient></defs><g id="Layer_2" data-name="Layer 2"><g id="Layer_1-2" data-name="Layer 1"><polygon class="cls-1" points="224.63 75.19 224.63 178.54 170.71 226.22 170.71 24.39 158.33 11.43 147.41 0 147.41 276.37 164.89 260.89 170.71 255.69 244.66 190.08 247.93 187.16 247.93 99.58 224.63 75.19"/><polygon class="cls-2" points="1.86 99.69 1.82 99.53 0 101.4 0 231.25 17.55 217.66 32.63 205.98 90.22 161.4 90.22 260.89 110.03 276.37 110.03 117.25 93.29 129.98 89.4 132.93 19.8 185.86 21.11 108.92 110.03 30.25 110.03 3.11 9.33 91.84 1.86 99.69"/></g></g></svg>
